:SAMPLES-PER-SECOND 30
:FULLY-SPECIFIED
:DEGREES
79
root  34.75202125 36.5496718 -14.29597299 9.738405228 -6.290262699 3.635548592
lowerback  -7.949869633 -0.8074389696 -1.320479989
upperback  -4.014279842 -0.4910399914 -3.707449913
thorax  0.2878029943 -0.06855329871 -3.124819994
lowerneck  -5.137380123 -14.90260029 -10.73770046
upperneck  9.759460449 -20.31809998 10.97859955
head  6.008649826 -9.68144989 3.373359919
lclavicle  0 -4.497500157e-015 -2.743230041e-014
lhumerus  -47.88330078 29.64649963 63.19680023
lradius  0.006620147731 -6.507048965e-006 30.00340271
lwrist  4.824992743e-007 -3.790274832e-007 -28.65040016
lhand  -3.516674689e-031 -36.93180084 -10.66819954
lfingers  90 7.125020027 -90
lthumb  94.82949066 -25.50305367 101.1023483
rclavicle  0 -4.497500157e-015 -2.743230041e-014
rhumerus  -34.29349899 -30.60609627 -40.45629883
rradius  -5.16745672e-007 2.214343908e-008 120.0780029
rwrist  -2.867388866e-005 0.1017204151 178.6210022
rhand  -3.006815134e-031 2.8854599 -7.839839935
rfingers  -90 -7.125020027 -90
rthumb  -85.55987549 -8.16466713 -61.33184433
rfemur  -11.89765072 14.97312832 12.2917366
rtibia  -0.3226414323 -1.851933718 18.84056282
rfoot  1.489816904 -23.20940208 -33.45587158
rtoes  4.155870914 19.56792641 -102.2330322
lfemur  -5.358135223 -15.9081068 -22.13637733
ltibia  5.544942379 -0.8082296252 9.925139427
lfoot  0.7754419446 -21.49936104 37.20001984
ltoes  -8.545763016 -18.14627457 -115.7511444
80
root  34.74948312 36.55173835 -14.2924046 9.752351761 -6.268610001 3.641149998
lowerback  -7.94716835 -0.797450006 -1.332129836
upperback  -4.022190094 -0.4742580056 -3.732439995
thorax  0.2783379853 -0.05907959864 -3.142849922
lowerneck  -5.080480099 -14.95569992 -10.72049999
upperneck  9.674380302 -20.38980103 10.97060013
head  5.977509975 -9.720749855 3.366349936
lclavicle  0 -4.497500157e-015 -2.743230041e-014
lhumerus  -47.80830002 29.49150085 63.29439926
lradius  0.006620147731 -6.507048965e-006 30.00522614
lwrist  4.824992743e-007 -3.790274832e-007 -28.54800034
lhand  -3.517220446e-031 -36.97650146 -10.65530014
lfingers  90 7.125020027 -90
lthumb  94.84770966 -25.48881149 101.1490479
rclavicle  0 -4.497500157e-015 -2.743230041e-014
rhumerus  -32.97200012 -31.07240105 -39.8689003
rradius  -5.16745672e-007 2.214343908e-008 119.8450012
rwrist  -2.867388866e-005 0.1017204151 178.5870056
rhand  -3.013983967e-031 3.10255003 -7.731339931
rfingers  -90 -7.125020027 -90
rthumb  -85.46040344 -8.273855209 -61.1129837
rfemur  -11.92556 14.97448635 12.29094219
rtibia  -0.3367899954 -1.82164669 18.87134552
rfoot  1.494700551 -23.13653374 -33.4461937
rtoes  4.173678398 19.56784821 -102.286171
lfemur  -5.29224062 -15.90923023 -22.16966629
ltibia  5.611476898 -0.8094938397 9.799916267
lfoot  0.7617963552 -21.4354763 37.18042374
ltoes  -8.55440712 -18.14632034 -115.7796631
81
root  34.74677078 36.555514 -14.29068798 9.760737419 -6.253085136 3.663903952
lowerback  -7.947557449 -0.7907299399 -1.332130075
upperback  -4.028950214 -0.4642769992 -3.737339973
thorax  0.2729479969 -0.05367989838 -3.147160053
lowerneck  -5.038879871 -14.99650002 -10.7869997
upperneck  9.593079567 -20.44449806 11.02019978
head  5.963300228 -9.750760078 3.387500048
lclavicle  0 -4.497500157e-015 -2.743230041e-014
lhumerus  -47.8146019 29.5053997 63.27859879
lradius  0.006620147731 -6.507048965e-006 30.00379944
lwrist  4.824992743e-007 -3.790274832e-007 -28.61639977
lhand  -3.520770081e-031 -36.94029999 -10.61769962
lfingers  90 7.125020027 -90
lthumb  94.82269287 -25.45320129 101.1068039
rclavicle  0 -4.497500157e-015 -2.743230041e-014
rhumerus  -31.54430008 -31.46580124 -39.29930115
rradius  -5.16745672e-007 2.214343908e-008 119.4990005
rwrist  -2.867388866e-005 0.1017204151 178.5709991
rhand  -3.047754436e-031 3.298160076 -7.226560116
rfingers  -90 -7.125020027 -90
rthumb  -85.1696167 -8.727737427 -60.88576889
rfemur  -11.95237732 14.96155834 12.2942915
rtibia  -0.3553600609 -1.82452631 18.91718674
rfoot  1.476928353 -23.14023018 -33.44766235
rtoes  4.17502594 19.56783295 -102.2901917
lfemur  -5.194180012 -15.97518063 -22.23921967
ltibia  5.703632355 -0.8533824086 9.633502007
lfoot  0.7361180186 -21.26301384 37.18061066
ltoes  -8.545493126 -18.1504097 -115.7510452
82
root  34.74261366 36.55715702 -14.28844722 9.771790504 -6.229772091 3.673537254
lowerback  -7.94922781 -0.7975948453 -1.347141147
upperback  -4.037580013 -0.468490988 -3.751810074
thorax  0.2658909857 -0.05471770093 -3.154150009
lowerneck  -5.007319927 -15.03079987 -10.83119965
upperneck  9.561510086 -20.49479866 11.07269955
head  5.964029789 -9.775119781 3.405100107
lclavicle  0 -4.497500157e-015 -2.743230041e-014
lhumerus  -47.83100128 29.49510002 63.27959824
lradius  0.006620147731 -6.507048965e-006 30.02989769
lwrist  4.824992743e-007 -3.790274832e-007 -28.57690048
lhand  -3.520124773e-031 -36.95069885 -10.6239996
lfingers  90 7.125020027 -90
lthumb  94.82894135 -25.45902252 101.118576
rclavicle  0 -4.497500157e-015 -2.743230041e-014
rhumerus  -30.01799965 -31.77870369 -38.73069763
rradius  -5.16745672e-007 2.214343908e-008 119.0459976
rwrist  -2.867388866e-005 0.1017204151 178.6399384
rhand  -3.038549489e-031 3.732569933 -7.360239983
rfingers  -90 -7.125020027 -90
rthumb  -85.13742828 -8.63818264 -60.47213364
rfemur  -11.94217682 14.92509079 12.29539871
rtibia  -0.3590991795 -1.853532314 18.89695168
rfoot  1.48412919 -23.18592453 -33.4325943
rtoes  4.164349556 19.56787109 -102.2583313
lfemur  -5.184304237 -16.00333595 -22.24813461
ltibia  5.727928638 -0.8519868851 9.598532677
lfoot  0.7463682294 -21.25219345 37.19696045
ltoes  -8.529376984 -18.15778732 -115.6993179
83
root  34.74064023 36.55840055 -14.28622899 9.776925087 -6.205363274 3.688259602
lowerback  -7.950600147 -0.8030269742 -1.367830157
upperback  -4.056799889 -0.4725469947 -3.769589901
thorax  0.2449239939 -0.05512319878 -3.161240101
lowerneck  -4.977449894 -15.03649998 -10.7894001
upperneck  9.515319824 -20.50250053 11.05539989
head  5.93915987 -9.78085041 3.397599936
lclavicle  0 -4.497500157e-015 -2.743230041e-014
lhumerus  -47.86259842 29.52300072 63.22320175
lradius  0.006620147731 -6.507048965e-006 30.04579735
lwrist  4.824992743e-007 -3.790274832e-007 -28.58880043
lhand  -3.520283685e-031 -36.96620178 -10.61989975
lfingers  90 7.125020027 -90
lthumb  94.83532715 -25.454422 101.134819
rclavicle  0 -4.497500157e-015 -2.743230041e-014
rhumerus  -28.55579948 -32.19540024 -38.1894989
rradius  -5.16745672e-007 2.214343908e-008 118.4680023
rwrist  -2.867388866e-005 0.1017204151 178.6029968
rhand  -3.050857046e-031 3.738430023 -7.176939964
rfingers  -90 -7.125020027 -90
rthumb  -85.04466248 -8.79805851 -60.45265579
rfemur  -11.91906738 14.90662575 12.28989124
rtibia  -0.3653610647 -1.87693882 18.86218643
rfoot  1.498071432 -23.20188904 -33.43409348
rtoes  4.162008286 19.56795883 -102.2513428
lfemur  -5.20966959 -16.01354027 -22.2490654
ltibia  5.723430634 -0.8540225625 9.629981995
lfoot  0.7597298026 -21.273386 37.17266083
ltoes  -8.525744438 -18.15944862 -115.6876678
84
root  34.73861274 36.55927763 -14.28589708 9.797421455 -6.189200401 3.692813635
lowerback  -7.950849533 -0.7905759215 -1.365370154
upperback  -4.06388998 -0.4520590007 -3.811779976
thorax  0.2381799966 -0.04369499907 -3.204900026
lowerneck  -4.933609962 -15.07689953 -10.75809956
upperneck  9.465999603 -20.56340027 11.08780003
head  5.923409939 -9.809379578 3.400130033
lclavicle  0 -4.497500157e-015 -2.743230041e-014
lhumerus  -47.83860016 29.44809914 63.19279861
lradius  0.006620147731 -6.507048965e-006 30.04089928
lwrist  4.824992743e-007 -3.790274832e-007 -28.56629944
lhand  -3.518412566e-031 -36.95640182 -10.64379978
lfingers  90 7.125020027 -90
lthumb  94.83582306 -25.47818375 101.1264801
rclavicle  0 -4.497500157e-015 -2.743230041e-014
rhumerus  -27.20070076 -32.5694046 -37.84169769
rradius  -5.16745672e-007 2.214343908e-008 117.9909973
rwrist  -2.867388866e-005 0.1017204151 178.6920013
rhand  -3.065929775e-031 3.905169964 -6.95126009
rfingers  -90 -7.125020027 -90
rthumb  -84.89297485 -9.004335403 -60.27241135
rfemur  -11.90843773 14.87087154 12.28030491
rtibia  -0.3609401286 -1.909843564 18.8178463
rfoot  1.494761586 -23.24866867 -33.46422577
rtoes  4.157502651 19.56809616 -102.2378998
lfemur  -5.240209579 -16.10084724 -22.2427597
ltibia  5.715819836 -0.8824446201 9.666033745
lfoot  0.7797964811 -21.22763824 37.22793579
ltoes  -8.513708115 -18.1649456 -115.6490479
